<svg xmlns="http://www.w3.org/2000/svg" width="48" height="48" viewBox="0 0 48 48"><defs><style>.a{opacity:0.3;}.b{opacity:0;}.c,.d{fill:#fff;}.d{stroke:rgba(0,0,0,0);stroke-miterlimit:10;}</style></defs><g class="a" transform="translate(-120 -10)"><g class="b" transform="translate(120 10)"><g transform="translate(0)"><rect class="c" width="48" height="48"/></g></g><g transform="translate(124 14)"><path class="d" d="M39,40H1a1,1,0,0,1-1-1V1A1,1,0,0,1,1,0H39a1,1,0,0,1,1,1V39A1,1,0,0,1,39,40ZM14.445,17.028V21.1h3.232V31.11h4.04V21.1h3.334l.5-4.068H21.717v-2.5A1.729,1.729,0,0,1,22,13.219a1.871,1.871,0,0,1,1.535-.572h2.02V9.1a12.214,12.214,0,0,0-2.28-.211,7.148,7.148,0,0,0-3.672.834,4.051,4.051,0,0,0-1.927,3.758v3.547Z" transform="translate(0 0)"/></g></g></svg>