<svg xmlns="http://www.w3.org/2000/svg" width="48" height="48" viewBox="0 0 48 48"><defs><style>.a{opacity:0.3;}.b{opacity:0;}.c,.d{fill:#fff;}.d{stroke:rgba(0,0,0,0);stroke-miterlimit:10;}</style></defs><g class="a" transform="translate(-118 -8)"><g class="b" transform="translate(118 8)"><g transform="translate(0 0)"><rect class="c" width="48" height="48"/></g></g><g transform="translate(122 12)"><path class="d" d="M39,40H1a1,1,0,0,1-1-1V1A1,1,0,0,1,1,0H39a1,1,0,0,1,1,1V39A1,1,0,0,1,39,40ZM16.734,19.939l0,0,6.531,9.192h6.666V10.867H23.267v9.566l-6.533-9.566H10.066V29.133h6.667V19.939Z" transform="translate(0 0)"/></g></g></svg>