<svg xmlns="http://www.w3.org/2000/svg" width="48" height="48" viewBox="0 0 48 48"><defs><style>.a{opacity:0.3;}.b,.c{fill:#fff;}.b{opacity:0;}.c{stroke:rgba(0,0,0,0);stroke-miterlimit:10;}</style></defs><g class="a" transform="translate(-110.919 -4.919)"><rect class="b" width="48" height="48" transform="translate(110.919 4.919)"/><g transform="translate(104.919 -32.081)"><path class="c" d="M39,40H1a1,1,0,0,1-1-1V1A1,1,0,0,1,1,0H39a1,1,0,0,1,1,1V39A1,1,0,0,1,39,40ZM20,10c-.083,0-8.363.006-10.418.563A3.361,3.361,0,0,0,7.223,12.95a35.726,35.726,0,0,0-.557,6.5,35.718,35.718,0,0,0,.557,6.494,3.36,3.36,0,0,0,2.358,2.386c2.058.558,10.335.564,10.418.564s8.36-.006,10.418-.564a3.36,3.36,0,0,0,2.358-2.386,35.718,35.718,0,0,0,.557-6.494,35.726,35.726,0,0,0-.557-6.5,3.361,3.361,0,0,0-2.358-2.386C28.363,10.007,20.083,10,20,10ZM17.333,23.493V15.4l6.928,4.048-6.927,4.046Z" transform="translate(10 41)"/></g></g></svg>